PathFileType	4	(X/Y/Z)	C:/Users/dbak576/Desktop/Duncan Bakke Modelling Files/Output/AB08/StaticAB08.trc	
DataRate	CameraRate	NumFrames	NumMarkers	Units	OrigDataRate	OrigDataStartFrame	OrigNumFrames	
200.00	200.00	4	42	mm	200.00	16	125	
Frame#	Time	LASI			RASI			LPSI			RPSI			LTH1			LTH2			LTH3			LTH4			LMFC			LLFC			LTB1			LTB2			LTB3			LTB4			LMMAL			LLMAL			LCAL			LToe			LMT1			LMT5			RTH1			RTH2			RTH3			RTH4			RMFC			RLFC			RTB1			RTB2			RTB3			RTB4			RMMAL			RLMAL			RCAL			RToe			RMT1			RMT5			C7			T10			LACR1			RACR1			CLAV			RBack			
		X1	Y1	Z1	X2	Y2	Z2	X3	Y3	Z3	X4	Y4	Z4	X5	Y5	Z5	X6	Y6	Z6	X7	Y7	Z7	X8	Y8	Z8	X9	Y9	Z9	X10	Y10	Z10	X11	Y11	Z11	X12	Y12	Z12	X13	Y13	Z13	X14	Y14	Z14	X15	Y15	Z15	X16	Y16	Z16	X17	Y17	Z17	X18	Y18	Z18	X19	Y19	Z19	X20	Y20	Z20	X21	Y21	Z21	X22	Y22	Z22	X23	Y23	Z23	X24	Y24	Z24	X25	Y25	Z25	X26	Y26	Z26	X27	Y27	Z27	X28	Y28	Z28	X29	Y29	Z29	X30	Y30	Z30	X31	Y31	Z31	X32	Y32	Z32	X33	Y33	Z33	X34	Y34	Z34	X35	Y35	Z35	X36	Y36	Z36	X37	Y37	Z37	X38	Y38	Z38	X39	Y39	Z39	X40	Y40	Z40	X41	Y41	Z41	X42	Y42	Z42	

16	0.075	355.52280	917.73877	973.12457	605.37659	915.55548	991.33832	419.23923	695.15210	1007.83081	545.39136	687.05939	1013.04803	336.89621	918.34222	681.18237	326.35922	896.64612	649.24341	372.61890	897.03680	601.44281	356.13901	908.70721	637.44238	444.23972	828.82050	508.33026	320.34457	800.31848	520.57806	290.24530	769.87012	428.57123	287.33606	760.07867	344.69748	301.94080	812.46588	341.24496	297.99338	805.17804	381.15796	383.55051	798.00159	121.22704	298.49652	774.48608	116.29774	338.86163	705.33612	52.32342	354.87076	1008.87616	46.14932	384.63306	920.41528	48.04662	262.96115	902.06940	40.29076	610.95850	917.52606	705.96643	600.14911	899.27173	642.77704	644.36212	861.07013	623.99792	651.80786	880.09973	678.68970	521.52771	829.03607	507.79654	647.75641	803.53772	531.15399	662.63818	815.28931	418.47385	653.50037	827.01697	381.25052	647.44495	831.84851	330.80615	679.59967	788.21283	335.02130	584.11163	799.58099	122.98159	671.49756	771.24036	113.36640	625.37244	700.55920	57.16000	617.51746	1003.91669	42.18893	586.39581	911.16302	42.19633	708.62836	891.58203	43.72185	450.09244	726.87476	1498.74561	455.61478	692.71100	1242.81750	288.78796	796.65247	1478.91150	610.34723	777.97839	1490.59265	460.91888	889.59027	1455.23938	572.16705	680.18811	1396.76123 
17	0.080	355.37057	917.76215	973.10010	605.28992	915.55939	991.31073	419.16183	695.19446	1007.84076	545.34412	687.08167	1013.04248	336.85416	918.28894	681.16357	326.24930	896.64624	649.24683	372.59119	896.98663	601.43713	356.08878	908.66797	637.41235	444.19904	828.80487	508.36499	320.39282	800.24329	520.56360	290.22696	769.78113	428.55984	287.30246	760.07684	344.71301	301.85443	812.43475	341.24847	297.89856	805.11304	381.13223	383.53986	798.00488	121.22114	298.47885	774.49640	116.29941	338.85449	705.36890	52.31879	354.84662	1008.87073	46.14444	384.65372	920.37872	48.04504	262.93954	902.05164	40.28965	610.92206	917.50366	705.98395	600.16925	899.29517	642.82135	644.33850	861.06201	624.01465	651.81012	880.10229	678.68738	521.46777	828.97815	507.82123	647.73499	803.58032	531.17493	662.62579	815.22198	418.49155	653.45581	826.97504	381.24982	647.40680	831.84637	330.80939	679.56866	788.19464	335.02243	584.07135	799.62482	122.98782	671.49872	771.23260	113.38582	625.31750	700.55151	57.19610	617.59973	1004.10925	42.38505	586.41949	911.20746	42.17340	708.64337	891.55194	43.73505	450.07565	726.86731	1498.74512	455.51532	692.71552	1242.81445	288.73410	796.59137	1478.91125	610.31354	777.95203	1490.60364	460.89255	889.54846	1455.23596	572.11169	680.20715	1396.73303 
18	0.085	355.29669	917.72125	973.09387	605.23834	915.61194	991.31836	419.10303	695.25201	1007.87744	545.26740	687.11725	1013.07861	336.81177	918.29706	681.17365	326.21973	896.65540	649.23181	372.52417	896.97205	601.41888	356.02646	908.64642	637.39764	444.21390	828.78326	508.40521	320.30951	800.26807	520.58173	290.20947	769.77319	428.52530	287.23941	760.05170	344.70789	301.88699	812.50751	341.29318	297.84497	805.05402	381.17111	383.56647	797.99500	121.24844	298.50323	774.50037	116.30225	338.83099	705.39508	52.30886	354.89981	1008.87390	46.15364	384.65677	920.38239	48.08884	262.96878	902.07617	40.23976	610.86053	917.57214	705.97021	600.06982	899.22241	642.77454	644.26740	861.08118	624.02203	651.72266	880.13983	678.68347	521.43237	829.08301	507.86328	647.69250	803.54211	531.23450	662.64276	815.23206	418.49402	653.39471	826.93695	381.24985	647.35938	831.78583	330.84729	679.53864	788.18719	335.04999	584.06989	799.57440	123.03532	671.51044	771.24072	113.39979	625.31348	700.55536	57.19481	617.55304	1003.90527	42.16629	586.36285	911.18060	42.21876	708.65906	891.54559	43.78888	450.01807	726.83429	1498.70740	455.45721	692.76031	1242.79578	288.68878	796.54883	1478.91113	610.26953	777.93982	1490.60718	460.87180	889.53625	1455.23755	572.04407	680.16870	1396.72998 
19	0.090	355.22839	917.80792	973.12775	605.21381	915.63678	991.31982	418.96384	695.28967	1007.94067	545.17163	687.14636	1013.11023	336.77783	918.21887	681.14209	326.16803	896.60358	649.23743	372.50027	896.98248	601.41132	356.03821	908.62305	637.40619	444.16324	828.71436	508.38589	320.25400	800.25165	520.58533	290.24548	769.79584	428.62708	287.22336	759.98230	344.70068	301.87604	812.48358	341.25922	297.89862	805.04425	381.14896	383.57437	797.98645	121.25876	298.49478	774.48254	116.30641	338.84424	705.34991	52.35188	354.87991	1008.84802	46.13014	384.65268	920.38208	48.09082	263.00284	902.00983	40.28245	610.82361	917.54645	705.96619	600.06915	899.24597	642.79718	644.23706	861.06750	623.99493	651.66901	880.09991	678.72681	521.41101	829.06445	507.88284	647.69318	803.55121	531.21570	662.62561	815.22211	418.52780	653.40222	826.95624	381.26880	647.37561	831.81818	330.83383	679.51898	788.18878	335.07629	584.08423	799.63300	123.02459	671.52795	771.23370	113.41383	625.33344	700.53461	57.21101	617.59882	1004.09308	42.42225	586.36133	911.18036	42.21984	708.66174	891.55420	43.77129	449.97379	726.83484	1498.73352	455.40805	692.38806	1242.76953	288.70596	796.54205	1478.93359	610.25812	777.96478	1490.61853	460.86844	889.48224	1455.23096	572.02618	680.15387	1396.71045 
